<?xml version="1.0" encoding="UTF-8"?>
<svg width="210mm" height="297mm" version="1.1" viewBox="23.888 38.238 161.77 211.67" xmlns="http://www.w3.org/2000/svg" xmlns:cc="http://creativecommons.org/ns#" xmlns:dc="http://purl.org/dc/elements/1.1/" xmlns:osb="http://www.openswatchbook.org/uri/2009/osb" xmlns:rdf="http://www.w3.org/1999/02/22-rdf-syntax-ns#">
<metadata>
<rdf:RDF>
<cc:Work rdf:about="">
<dc:format>image/svg+xml</dc:format>
<dc:type rdf:resource="http://purl.org/dc/dcmitype/StillImage"/>
<dc:title/>
</cc:Work>
</rdf:RDF>
</metadata>
<g transform="translate(-1.1339 7.2571)">
<g transform="translate(1.5875 -3.7042)">
<rect x="23.435" y="34.685" width="161.77" height="211.67" ry="15.119" fill="#ffe476" stroke="#000" stroke-width="1.0583"/>
<text x="104.85988" y="88.336494" fill="#000000" font-family="sans-serif" font-size="10.583px" letter-spacing="0px" stroke-width=".26458" word-spacing="0px" style="line-height:1.25" xml:space="preserve"><tspan x="104.85988" y="88.336494" fill="#000000" font-weight="bold" stroke-width=".26458" text-align="center" text-anchor="middle">ACTION CARD</tspan></text>
<ellipse cx="105.61" cy="142.24" rx="46.959" ry="42.469" fill="#fff" stroke="#000" stroke-width="3.5278"/>
<ellipse cx="105.21" cy="142.28" rx="31.959" ry="27.469" fill="#fff" stroke="#000" stroke-width="3.5278"/>
<path d="m59.645 141.58h12.851" fill="#010101" stroke="#000" stroke-width="2.8222"/>
<path d="m139.02 142.94h12.851" fill="#010101" stroke="#000" stroke-width="2.8222"/>
<text x="81.340378" y="148.04651" fill="#000000" font-family="sans-serif" font-size="15.875px" letter-spacing="0px" stroke-width=".26458" word-spacing="0px" style="line-height:1.25" xml:space="preserve"><tspan x="81.340378" y="148.04651" stroke-width=".26458"><tspan x="81.340378" y="148.04651" font-size="15.875px" font-weight="bold" stroke-width=".26458">RENT</tspan></tspan></text>
</g>
<rect x="40.785" y="45.553" width="130.21" height="181.48" rx="0" ry="5.6922" fill="none" stroke="#000" stroke-dasharray="3.52777778, 1.76388889, 0.88194444, 1.76388889" stroke-width="1.7639"/>
<g>
<circle transform="translate(1.5875 -3.7042)" cx="48.23" cy="58.497" r="19.655" fill="#fff" stroke="#000" stroke-width="1.0583"/>
<text transform="matrix(.83776 0 0 1.1937 1.5875 -3.7042)" x="39.251858" y="53.991329" fill="#000000" font-family="sans-serif" font-size="12.633px" letter-spacing="0px" stroke-width=".31582" word-spacing="0px" style="line-height:1.25" xml:space="preserve"><tspan x="39.251858" y="53.991329" stroke-width=".31582"><tspan x="39.251858" y="53.991329" font-size="13.475px" font-weight="bold" stroke-width=".31582">$1 M</tspan></tspan></text>
</g>
<g transform="translate(111.81 162.88)">
<circle transform="translate(1.5875 -3.7042)" cx="48.23" cy="58.497" r="19.655" fill="#fff" stroke="#000" stroke-width="1.0583"/>
<text transform="matrix(.83776 0 0 1.1937 1.5875 -3.7042)" x="39.251858" y="53.991329" fill="#000000" font-family="sans-serif" font-size="12.633px" letter-spacing="0px" stroke-width=".31582" word-spacing="0px" style="line-height:1.25" xml:space="preserve"><tspan x="39.251858" y="53.991329" stroke-width=".31582"><tspan x="39.251858" y="53.991329" font-size="13.475px" font-weight="bold" stroke-width=".31582">$1 M</tspan></tspan></text>
</g>
</g>
<text x="160.53653" y="198.46635" fill="#000000" font-family="sans-serif" font-size="10.583px" letter-spacing="0px" stroke-width=".26458" text-align="center" text-anchor="middle" word-spacing="0px" style="line-height:7.76111126px" xml:space="preserve"><tspan x="160.53653" y="205.38782" stroke-width=".26458" text-align="center" text-anchor="middle"/></text>
<text x="175.62546" y="220.25034" fill="#000000" font-family="sans-serif" font-size="10.583px" letter-spacing="0px" stroke-width=".26458" word-spacing="0px" style="line-height:1.25" xml:space="preserve"><tspan x="102.96068" y="220.25034" stroke-width=".26458" text-align="center" text-anchor="middle"><tspan x="102.96068" y="220.25034" font-size="6.35px" stroke-width=".26458" text-align="center" text-anchor="middle">Play into center to use.</tspan></tspan></text>
<text x="158.71661" y="195.82053" fill="#000000" font-family="sans-serif" font-size="10.583px" letter-spacing="0px" stroke-width=".26458" text-anchor="middle" word-spacing="0px" style="line-height:7.76111126px" xml:space="preserve"><tspan x="104.55173" y="195.82053" text-align="center"><tspan x="103.18748" y="195.82053" font-size="7.7611px" stroke-width=".26458" text-align="center" text-anchor="middle" style="line-height:7.76111126px">All players pay you rent for </tspan></tspan><tspan x="104.55173" y="204.39255" text-align="center"><tspan x="103.18748" y="204.39255" font-size="7.7611px" stroke-width=".26458" text-align="center" text-anchor="middle" style="line-height:7.76111126px">properties you own in any </tspan></tspan><tspan x="104.55173" y="212.96458" text-align="center"><tspan x="103.18748" y="212.96458" dx="0 0 0 0 0 0 0 0 0 0 0 0 0 0 0 0 0 0 0 0 0 0" font-size="7.7611px" stroke-width=".26458" text-align="center" text-anchor="middle" style="line-height:7.76111126px">one of these colors. </tspan></tspan></text>
<path transform="scale(.26458)" d="m526.79 542.84c0-3.0172-1.2436-10.348-2.7637-16.292-20.094-78.568-128.86-112.58-202.69-63.381-8.8821 5.9193-23.627 19.682-30.05 28.049-8.2969 10.808-16.662 30.595-18.563 43.914l-0.96622 6.7666-20.341 0.39637c-23.753 0.46284-22.044 2.3213-17.613-19.149 12.83-62.168 67.725-111.33 137.07-122.75 22.755-3.7479 54.086-2.3506 76.326 3.4039 67.692 17.515 116.9 71.133 123.14 134.17l1.025 10.357h-44.576z" fill="#c87137"/>
<path transform="scale(.26458)" d="m374.65 702.44c-70.807-10.288-127.84-60.241-140.87-123.38-1.4624-7.0854-2.6674-15.615-2.6777-18.954l-0.0188-6.0714h39.653l1.548 10.357c1.9489 13.04 5.9098 24.582 12.574 36.642 7.282 13.178 29.202 34.629 43.765 42.827 70.428 39.649 163.87 12.105 191.81-56.538 1.8551-4.5589 4.1499-12.628 5.0996-17.932l1.7268-9.6429h43.773l-0.83595 6.7857c-4.129 33.516-17.728 60.574-43.307 86.168-21.11 21.122-40.189 32.991-67.283 41.856-26.11 8.5423-59.243 11.617-84.948 7.8821z" fill="#c87137"/>
<path transform="scale(.26458)" d="m526.79 541.74c0-15.588-9.2285-38.351-22.01-54.29-15.957-19.898-40.971-35.516-68.807-42.958-12.419-3.3203-17.028-3.8055-37.041-3.8987-19.56-0.0911-24.582 0.36339-34.816 3.1501-22.796 6.2079-38.493 14.375-55.518 28.886-18.395 15.678-29.095 32.984-35.003 56.61l-2.9094 11.634-15.877 0.57085c-17.587 0.63237-21.822 0.22195-22.72-2.202-0.78639-2.1218 3.4334-22.249 6.7828-32.352 13.965-42.123 51.413-79.243 97.411-96.558 43.164-16.248 95.972-14.818 138.3 3.7468 54.563 23.929 88.871 69.649 95.642 127.45l0.79478 6.7857h-44.231z" fill="#1919a6"/>
<path transform="scale(.26458)" d="m382.3 702.5c-50.325-4.3308-98.967-32.603-126.76-73.675-12.083-17.858-21.186-43.231-23.642-65.903l-0.97193-8.9694 39.246 0.79589 1.8796 11.138c2.3311 13.815 8.2786 29.386 15.216 39.837 6.5434 9.8581 26.734 29.418 37.428 36.259 18.657 11.935 41.986 18.864 67.81 20.142 64.828 3.2074 122.2-36.526 133.39-92.376l1.8599-9.2857 41.896-0.79067v4.3841c0 7.8672-4.4397 26.116-9.2655 38.083-12.558 31.144-43.41 64.45-75.177 81.159-27.293 14.356-68.933 22.125-102.91 19.201z" fill="#17a537"/>
</svg>
