<?xml version="1.0" encoding="UTF-8"?>
<svg width="210mm" height="297mm" version="1.1" viewBox="23.888 38.238 161.77 211.67" xmlns="http://www.w3.org/2000/svg" xmlns:cc="http://creativecommons.org/ns#" xmlns:dc="http://purl.org/dc/elements/1.1/" xmlns:osb="http://www.openswatchbook.org/uri/2009/osb" xmlns:rdf="http://www.w3.org/1999/02/22-rdf-syntax-ns#">
<metadata>
<rdf:RDF>
<cc:Work rdf:about="">
<dc:format>image/svg+xml</dc:format>
<dc:type rdf:resource="http://purl.org/dc/dcmitype/StillImage"/>
<dc:title/>
</cc:Work>
</rdf:RDF>
</metadata>
<g transform="translate(-1.1339 7.2571)">
<g transform="translate(1.5875 -3.7042)">
<rect x="23.435" y="34.685" width="161.77" height="211.67" ry="15.119" fill="#ffe476" stroke="#000" stroke-width="1.0583"/>
<text x="104.85988" y="88.336494" fill="#000000" font-family="sans-serif" font-size="10.583px" letter-spacing="0px" stroke-width=".26458" word-spacing="0px" style="line-height:1.25" xml:space="preserve"><tspan x="104.85988" y="88.336494" fill="#000000" font-weight="bold" stroke-width=".26458" text-align="center" text-anchor="middle">ACTION CARD</tspan></text>
<ellipse cx="105.61" cy="142.24" rx="46.959" ry="42.469" fill="#fff" stroke="#000" stroke-width="3.5278"/>
<ellipse cx="105.21" cy="142.28" rx="31.959" ry="27.469" fill="#fff" stroke="#000" stroke-width="3.5278"/>
<path d="m59.645 141.58h12.851" fill="#010101" stroke="#000" stroke-width="2.8222"/>
<path d="m139.02 142.94h12.851" fill="#010101" stroke="#000" stroke-width="2.8222"/>
<text x="81.340378" y="148.04651" fill="#000000" font-family="sans-serif" font-size="15.875px" letter-spacing="0px" stroke-width=".26458" word-spacing="0px" style="line-height:1.25" xml:space="preserve"><tspan x="81.340378" y="148.04651" stroke-width=".26458"><tspan x="81.340378" y="148.04651" font-size="15.875px" font-weight="bold" stroke-width=".26458">RENT</tspan></tspan></text>
</g>
<rect x="40.785" y="45.553" width="130.21" height="181.48" rx="0" ry="5.6922" fill="none" stroke="#000" stroke-dasharray="3.52777778, 1.76388889, 0.88194444, 1.76388889" stroke-width="1.7639"/>
<g>
<circle transform="translate(1.5875 -3.7042)" cx="48.23" cy="58.497" r="19.655" fill="#fff" stroke="#000" stroke-width="1.0583"/>
<text transform="matrix(.83776 0 0 1.1937 1.5875 -3.7042)" x="39.251858" y="53.991329" fill="#000000" font-family="sans-serif" font-size="12.633px" letter-spacing="0px" stroke-width=".31582" word-spacing="0px" style="line-height:1.25" xml:space="preserve"><tspan x="39.251858" y="53.991329" stroke-width=".31582"><tspan x="39.251858" y="53.991329" font-size="13.475px" font-weight="bold" stroke-width=".31582">$1 M</tspan></tspan></text>
</g>
<g transform="translate(111.81 162.88)">
<circle transform="translate(1.5875 -3.7042)" cx="48.23" cy="58.497" r="19.655" fill="#fff" stroke="#000" stroke-width="1.0583"/>
<text transform="matrix(.83776 0 0 1.1937 1.5875 -3.7042)" x="39.251858" y="53.991329" fill="#000000" font-family="sans-serif" font-size="12.633px" letter-spacing="0px" stroke-width=".31582" word-spacing="0px" style="line-height:1.25" xml:space="preserve"><tspan x="39.251858" y="53.991329" stroke-width=".31582"><tspan x="39.251858" y="53.991329" font-size="13.475px" font-weight="bold" stroke-width=".31582">$1 M</tspan></tspan></text>
</g>
</g>
<text x="160.53653" y="198.46635" fill="#000000" font-family="sans-serif" font-size="10.583px" letter-spacing="0px" stroke-width=".26458" text-align="center" text-anchor="middle" word-spacing="0px" style="line-height:7.76111126px" xml:space="preserve"><tspan x="160.53653" y="205.38782" stroke-width=".26458" text-align="center" text-anchor="middle"/></text>
<text x="175.62546" y="220.25034" fill="#000000" font-family="sans-serif" font-size="10.583px" letter-spacing="0px" stroke-width=".26458" word-spacing="0px" style="line-height:1.25" xml:space="preserve"><tspan x="102.96068" y="220.25034" stroke-width=".26458" text-align="center" text-anchor="middle"><tspan x="102.96068" y="220.25034" font-size="6.35px" stroke-width=".26458" text-align="center" text-anchor="middle">Play into center to use.</tspan></tspan></text>
<text x="158.71661" y="195.82053" fill="#000000" font-family="sans-serif" font-size="10.583px" letter-spacing="0px" stroke-width=".26458" text-anchor="middle" word-spacing="0px" style="line-height:7.76111126px" xml:space="preserve"><tspan x="104.55173" y="195.82053" text-align="center"><tspan x="103.18748" y="195.82053" font-size="7.7611px" stroke-width=".26458" text-align="center" text-anchor="middle" style="line-height:7.76111126px">All players pay you rent for </tspan></tspan><tspan x="104.55173" y="204.39255" text-align="center"><tspan x="103.18748" y="204.39255" font-size="7.7611px" stroke-width=".26458" text-align="center" text-anchor="middle" style="line-height:7.76111126px">properties you own in any </tspan></tspan><tspan x="104.55173" y="212.96458" text-align="center"><tspan x="103.18748" y="212.96458" dx="0 0 0 0 0 0 0 0 0 0 0 0 0 0 0 0 0 0 0 0 0 0" font-size="7.7611px" stroke-width=".26458" text-align="center" text-anchor="middle" style="line-height:7.76111126px">one of these colors. </tspan></tspan></text>
<path transform="scale(.26458)" d="m527.51 545.41c0-7.1731-4.9639-25.859-9.4538-35.587-15.079-32.672-45.598-56.152-85.822-66.028-9.6556-2.3706-17.066-3.1011-31.867-3.141-27.022-0.0729-44.251 3.9652-67.378 15.792-30.617 15.657-53.104 43.895-59.469 74.677l-2.3759 11.49h-40.267l1.1505-9.5562c6.5292-54.235 48.378-103.41 105.48-123.94 20.469-7.36 32.247-9.5134 56.429-10.317 25.696-0.85384 41.93 1.1022 62.366 7.5146 63.057 19.786 109.37 73.143 113.65 130.94l0.82033 11.071h-21.633c-20.829 0-21.633-0.10836-21.633-2.9174z" fill="#40c4eb"/>
<path transform="scale(.26458)" d="m372.51 702.03c-57.431-9.643-103.11-41.605-126.78-88.706-6.0665-12.073-11.846-30.008-13.119-40.714-0.51391-4.3214-1.2855-10.268-1.7147-13.214l-0.7803-5.3571h41.68l0.0211 5.3571c0.06 15.222 10.199 40.255 22.401 55.307 18.1 22.328 45.924 38.409 78.292 45.25 14.049 2.969 44.912 2.2551 59.724-1.3815 39.76-9.7617 70.575-33.316 85.362-65.247 4.6171-9.9704 6.1526-14.978 9.3088-30.357 0.64872-3.1609 1.0149-3.2143 22.061-3.2143h21.401v3.4458c0 7.2521-4.2604 25.208-8.9325 37.646-18.27 48.64-63.813 85.924-121.07 99.11-15.943 3.6719-51.813 4.7688-67.857 2.0749z" fill="#c87137"/>
</svg>
