<?xml version="1.0" encoding="UTF-8"?>
<svg width="210mm" height="297mm" version="1.1" viewBox="25.022 30.98 161.77 211.67" xmlns="http://www.w3.org/2000/svg" xmlns:cc="http://creativecommons.org/ns#" xmlns:dc="http://purl.org/dc/elements/1.1/" xmlns:rdf="http://www.w3.org/1999/02/22-rdf-syntax-ns#">
<metadata>
<rdf:RDF>
<cc:Work rdf:about="">
<dc:format>image/svg+xml</dc:format>
<dc:type rdf:resource="http://purl.org/dc/dcmitype/StillImage"/>
<dc:title/>
</cc:Work>
</rdf:RDF>
</metadata>
<g transform="translate(1.5875 -3.7042)">
<g>
<rect x="23.435" y="34.685" width="161.77" height="211.67" ry="15.119" fill="#fff" stroke="#000" stroke-width="1.0583"/>
<rect x="39.234" y="50.458" width="130.02" height="52.111" rx="0" ry="16.543" fill="#c87137" stroke="#000" stroke-width="1.1071"/>
<circle cx="48.23" cy="58.497" r="19.655" fill="#fff" stroke="#000" stroke-width="1.0583"/>
<text x="111.88103" y="137.37497" fill="#000000" font-family="sans-serif" font-size="10.583px" letter-spacing="0px" stroke-width=".26458" word-spacing="0px" style="line-height:1.25" xml:space="preserve"><tspan x="111.88103" y="137.37497" stroke-width=".26458"><tspan x="111.88103" y="137.37497" font-size="19.756px" font-weight="bold" stroke-width=".26458">RENT</tspan></tspan></text>
<text x="41.577305" y="131.27443" fill="#000000" font-family="sans-serif" font-size="10.583px" letter-spacing="0px" stroke-width=".26458" word-spacing="0px" style="line-height:1.25" xml:space="preserve"><tspan x="41.577305" y="131.27443"><tspan x="41.577305" y="131.27443" font-size="8.4667px" stroke-width=".26458">No. of </tspan></tspan><tspan x="41.577305" y="144.5036"><tspan x="41.577305" y="144.5036" font-size="8.4667px" stroke-width=".26458">Property Cards </tspan></tspan></text>
<text x="104.85988" y="73.519814" fill="#000000" font-family="sans-serif" font-size="10.583px" font-weight="bold" letter-spacing="0px" stroke-width=".26458" text-anchor="middle" word-spacing="0px" style="line-height:1.25" xml:space="preserve"><tspan x="106.66856" y="73.519814" text-align="center">BROWN </tspan><tspan x="104.85988" y="86.748978" text-align="center">PROPERTY CARD</tspan></text>
<text x="136.20834" y="170.41667" fill="#000000" font-family="sans-serif" font-size="10.583px" letter-spacing="0px" stroke-width=".26458" word-spacing="0px" style="line-height:1.25" xml:space="preserve"><tspan x="136.20834" y="170.41667" font-weight="bold" stroke-width=".26458">$1 M</tspan></text>
<text x="136.79166" y="200.16667" fill="#000000" font-family="sans-serif" font-size="10.583px" letter-spacing="0px" stroke-width=".26458" word-spacing="0px" style="line-height:1.25" xml:space="preserve"><tspan x="136.79166" y="200.16667" font-weight="bold" stroke-width=".26458">$2 M</tspan></text>
<text x="86.527214" y="195.15781" fill="#000000" font-family="sans-serif" font-size="10.583px" letter-spacing="0px" stroke-width=".26458" word-spacing="0px" style="line-height:1.25" xml:space="preserve"><tspan x="86.527214" y="195.15781" stroke-width=".26458"><tspan x="86.527214" y="195.15781" font-size="7.0556px" font-weight="bold" stroke-width=".26458">FULL SET</tspan></tspan></text>
<text x="65.916664" y="169.25" fill="#000000" font-family="sans-serif" font-size="10.583px" letter-spacing="0px" stroke-width=".26458" word-spacing="0px" style="line-height:1.25" xml:space="preserve"><tspan x="65.916664" y="178.9055" stroke-width=".26458"/></text>
<text x="62.7957" y="173.23613" fill="#000000" font-family="sans-serif" font-size="10.583px" letter-spacing="0px" stroke-width=".26458" word-spacing="0px" style="line-height:1.25" xml:space="preserve"><tspan x="62.7957" y="182.89163" font-size="9.8778px" stroke-width=".26458"/></text>
</g>
<g transform="translate(-1.4042 -1.1667)" stroke="#000">
<path transform="translate(.52917)" d="m57.335 162.24h18.974" fill="none" stroke-width=".26458px"/>
<rect x="57.747" y="157.17" width="18.562" height="23.099" ry="5.156" fill="#fff" stroke-width="1.0583"/>
<path transform="scale(.26458)" d="m220.45 611.91c0-1.3756 0.80841-4.0053 1.9453-6.3277 1.9133-3.9085 5.7419-7.1747 10.181-8.685 1.765-0.60058 2.0543-0.61075 19.702-0.69314 20.112-0.0939 20.575-0.0595 24.385 1.811 2.3833 1.1699 5.2462 3.7222 6.7986 6.061 1.1111 1.6739 2.4143 5.1862 2.7062 7.2936l0.18133 1.3091h-65.9z" fill="#c87137" stroke-width="1.1024"/>
</g>
<g transform="rotate(-13.085 180.47 193.74)" stroke="#000">
<path transform="translate(.52917)" d="m57.335 162.24h18.974" fill="none" stroke-width=".26458px"/>
<rect x="57.747" y="157.17" width="18.562" height="23.099" ry="5.156" fill="#fff" stroke-width="1.0583"/>
<path transform="scale(.26458)" d="m220.45 611.91c0-1.3756 0.80841-4.0053 1.9453-6.3277 1.9133-3.9085 5.7419-7.1747 10.181-8.685 1.765-0.60058 2.0543-0.61075 19.702-0.69314 20.112-0.0939 20.575-0.0595 24.385 1.811 2.3833 1.1699 5.2462 3.7222 6.7986 6.061 1.1111 1.6739 2.4143 5.1862 2.7062 7.2936l0.18133 1.3091h-65.9z" fill="#c87137" stroke-width="1.1024"/>
</g>
<g transform="rotate(12.339 -72.324 194.97)" stroke="#000">
<path transform="translate(.52917)" d="m57.335 162.24h18.974" fill="none" stroke-width=".26458px"/>
<rect x="57.747" y="157.17" width="18.562" height="23.099" ry="5.156" fill="#fff" stroke-width="1.0583"/>
<path transform="scale(.26458)" d="m220.45 611.91c0-1.3756 0.80841-4.0053 1.9453-6.3277 1.9133-3.9085 5.7419-7.1747 10.181-8.685 1.765-0.60058 2.0543-0.61075 19.702-0.69314 20.112-0.0939 20.575-0.0595 24.385 1.811 2.3833 1.1699 5.2462 3.7222 6.7986 6.061 1.1111 1.6739 2.4143 5.1862 2.7062 7.2936l0.18133 1.3091h-65.9z" fill="#c87137" stroke-width="1.1024"/>
</g>
<path d="m80.392 168.95h46.083" fill="none" stroke="#000" stroke-dasharray="0.35277778, 0.35277778" stroke-width=".35278"/>
<path d="m82.026 197.64h46.083" fill="none" stroke="#000" stroke-dasharray="0.35277778, 0.35277778" stroke-width=".35278"/>
<text x="62.177082" y="172.38126" fill="#000000" font-family="sans-serif" font-size="10.583px" letter-spacing="0px" stroke-width=".26458" word-spacing="0px" style="line-height:1.25" xml:space="preserve"><tspan x="62.177082" y="172.38126" font-weight="bold" stroke-width=".26458">1</tspan></text>
<text transform="rotate(13.769)" x="111.24199" y="182.11351" fill="#000000" font-family="sans-serif" font-size="10.583px" letter-spacing="0px" stroke-width=".26458" word-spacing="0px" style="line-height:1.25" xml:space="preserve"><tspan x="111.24199" y="182.11351" font-weight="bold" stroke-width=".26458">2</tspan></text>
<text transform="scale(.83776 1.1937)" x="39.251858" y="53.991329" fill="#000000" font-family="sans-serif" font-size="12.633px" letter-spacing="0px" stroke-width=".31582" word-spacing="0px" style="line-height:1.25" xml:space="preserve"><tspan x="39.251858" y="53.991329" stroke-width=".31582"><tspan x="39.251858" y="53.991329" font-size="13.475px" font-weight="bold" stroke-width=".31582">$1 M</tspan></tspan></text>
</g>
</svg>
