<?xml version="1.0" encoding="UTF-8"?>
<svg width="210mm" height="297mm" version="1.1" viewBox="25.022 30.98 161.77 211.67" xmlns="http://www.w3.org/2000/svg" xmlns:cc="http://creativecommons.org/ns#" xmlns:dc="http://purl.org/dc/elements/1.1/" xmlns:rdf="http://www.w3.org/1999/02/22-rdf-syntax-ns#">
<metadata>
<rdf:RDF>
<cc:Work rdf:about="">
<dc:format>image/svg+xml</dc:format>
<dc:type rdf:resource="http://purl.org/dc/dcmitype/StillImage"/>
<dc:title/>
</cc:Work>
</rdf:RDF>
</metadata>
<g transform="translate(1.5875 -3.7042)">
<rect x="23.435" y="34.685" width="161.77" height="211.67" ry="15.119" fill="#fff" stroke="#000" stroke-width="1.0583"/>
<g transform="matrix(1 0 0 .4278 0 22.225)">
<rect x="39.234" y="50.458" width="130.02" height="52.111" rx="0" ry="16.543" fill="#40c4eb" stroke="#000" stroke-width="1.1071"/>
<circle cx="48.23" cy="58.497" r="19.655" fill="#fff" stroke="#000" stroke-width="1.0583"/>
<text x="111.88103" y="137.37497" fill="#000000" font-family="sans-serif" font-size="10.583px" letter-spacing="0px" stroke-width=".26458" word-spacing="0px" style="line-height:1.25" xml:space="preserve"><tspan x="111.88103" y="137.37497" stroke-width=".26458"><tspan x="111.88103" y="137.37497" font-size="19.756px" font-weight="bold" stroke-width=".26458">RENT</tspan></tspan></text>
<text x="41.577305" y="131.27443" fill="#000000" font-family="sans-serif" font-size="10.583px" letter-spacing="0px" stroke-width=".26458" word-spacing="0px" style="line-height:1.25" xml:space="preserve"><tspan x="41.577305" y="131.27443"><tspan x="41.577305" y="131.27443" font-size="8.4667px" stroke-width=".26458">No. of </tspan></tspan><tspan x="41.577305" y="144.5036"><tspan x="41.577305" y="144.5036" font-size="8.4667px" stroke-width=".26458">Property Cards </tspan></tspan></text>
<text x="104.85988" y="73.519814" fill="#000000" font-family="sans-serif" font-size="10.583px" font-weight="bold" letter-spacing="0px" stroke-width=".26458" text-anchor="middle" word-spacing="0px" style="line-height:1.25" xml:space="preserve"><tspan x="106.66856" y="73.519814" text-align="center">LIGHT BLUE </tspan><tspan x="104.85988" y="86.748978" text-align="center">PROPERTY CARD</tspan></text>
<text x="136.20834" y="170.41667" fill="#000000" font-family="sans-serif" font-size="10.583px" letter-spacing="0px" stroke-width=".26458" word-spacing="0px" style="line-height:1.25" xml:space="preserve"><tspan x="136.20834" y="170.41667" font-weight="bold" stroke-width=".26458">$1 M</tspan></text>
<text x="136.79166" y="200.16667" fill="#000000" font-family="sans-serif" font-size="10.583px" letter-spacing="0px" stroke-width=".26458" word-spacing="0px" style="line-height:1.25" xml:space="preserve"><tspan x="136.79166" y="200.16667" font-weight="bold" stroke-width=".26458">$2 M</tspan></text>
<text x="137.08331" y="230.79167" fill="#000000" font-family="sans-serif" font-size="10.583px" letter-spacing="0px" stroke-width=".26458" word-spacing="0px" style="line-height:1.25" xml:space="preserve"><tspan x="137.08331" y="230.79167" font-weight="bold" stroke-width=".26458">$3 M</tspan></text>
<text x="89.52063" y="224.71782" fill="#000000" font-family="sans-serif" font-size="10.583px" letter-spacing="0px" stroke-width=".26458" word-spacing="0px" style="line-height:1.25" xml:space="preserve"><tspan x="89.52063" y="224.71782" stroke-width=".26458"><tspan x="89.52063" y="224.71782" font-size="7.0556px" font-weight="bold" stroke-width=".26458">FULL SET</tspan></tspan></text>
<text x="65.916664" y="169.25" fill="#000000" font-family="sans-serif" font-size="10.583px" letter-spacing="0px" stroke-width=".26458" word-spacing="0px" style="line-height:1.25" xml:space="preserve"><tspan x="65.916664" y="178.9055" stroke-width=".26458"/></text>
<text x="62.7957" y="173.23613" fill="#000000" font-family="sans-serif" font-size="10.583px" letter-spacing="0px" stroke-width=".26458" word-spacing="0px" style="line-height:1.25" xml:space="preserve"><tspan x="62.7957" y="182.89163" font-size="9.8778px" stroke-width=".26458"/></text>
<g transform="translate(-1.4042 -1.1667)" stroke="#000">
<path transform="translate(.52917)" d="m57.335 162.24h18.974" fill="none" stroke-width=".26458px"/>
<rect x="57.747" y="157.17" width="18.562" height="23.099" ry="5.156" fill="#fff" stroke-width="1.0583"/>
<path transform="scale(.26458)" d="m220.45 611.91c0-1.3756 0.80841-4.0053 1.9453-6.3277 1.9133-3.9085 5.7419-7.1747 10.181-8.685 1.765-0.60058 2.0543-0.61075 19.702-0.69314 20.112-0.0939 20.575-0.0595 24.385 1.811 2.3833 1.1699 5.2462 3.7222 6.7986 6.061 1.1111 1.6739 2.4143 5.1862 2.7062 7.2936l0.18133 1.3091h-65.9z" fill="#40c4eb" stroke-width="1.1024"/>
</g>
<g transform="rotate(-39.589 144.78 202.96)" stroke="#000">
<path transform="translate(.52917)" d="m57.335 162.24h18.974" fill="none" stroke-width=".26458px"/>
<rect x="57.747" y="157.17" width="18.562" height="23.099" ry="5.156" fill="#fff" stroke-width="1.0583"/>
<path transform="scale(.26458)" d="m220.45 611.91c0-1.3756 0.80841-4.0053 1.9453-6.3277 1.9133-3.9085 5.7419-7.1747 10.181-8.685 1.765-0.60058 2.0543-0.61075 19.702-0.69314 20.112-0.0939 20.575-0.0595 24.385 1.811 2.3833 1.1699 5.2462 3.7222 6.7986 6.061 1.1111 1.6739 2.4143 5.1862 2.7062 7.2936l0.18133 1.3091h-65.9z" fill="#40c4eb" stroke-width="1.1024"/>
</g>
<g transform="translate(1.0807 57.289)" stroke="#000">
<path transform="translate(.52917)" d="m57.335 162.24h18.974" fill="none" stroke-width=".26458px"/>
<rect x="57.747" y="157.17" width="18.562" height="23.099" ry="5.156" fill="#fff" stroke-width="1.0583"/>
<path transform="scale(.26458)" d="m220.45 611.91c0-1.3756 0.80841-4.0053 1.9453-6.3277 1.9133-3.9085 5.7419-7.1747 10.181-8.685 1.765-0.60058 2.0543-0.61075 19.702-0.69314 20.112-0.0939 20.575-0.0595 24.385 1.811 2.3833 1.1699 5.2462 3.7222 6.7986 6.061 1.1111 1.6739 2.4143 5.1862 2.7062 7.2936l0.18133 1.3091h-65.9z" fill="#40c4eb" stroke-width="1.1024"/>
</g>
<g transform="rotate(16.935 -134.13 212.54)" stroke="#000">
<path transform="translate(.52917)" d="m57.335 162.24h18.974" fill="none" stroke-width=".26458px"/>
<rect x="57.747" y="157.17" width="18.562" height="23.099" ry="5.156" fill="#fff" stroke-width="1.0583"/>
<path transform="scale(.26458)" d="m220.45 611.91c0-1.3756 0.80841-4.0053 1.9453-6.3277 1.9133-3.9085 5.7419-7.1747 10.181-8.685 1.765-0.60058 2.0543-0.61075 19.702-0.69314 20.112-0.0939 20.575-0.0595 24.385 1.811 2.3833 1.1699 5.2462 3.7222 6.7986 6.061 1.1111 1.6739 2.4143 5.1862 2.7062 7.2936l0.18133 1.3091h-65.9z" fill="#40c4eb" stroke-width="1.1024"/>
</g>
<g transform="rotate(-13.085 180.47 193.74)" stroke="#000">
<path transform="translate(.52917)" d="m57.335 162.24h18.974" fill="none" stroke-width=".26458px"/>
<rect x="57.747" y="157.17" width="18.562" height="23.099" ry="5.156" fill="#fff" stroke-width="1.0583"/>
<path transform="scale(.26458)" d="m220.45 611.91c0-1.3756 0.80841-4.0053 1.9453-6.3277 1.9133-3.9085 5.7419-7.1747 10.181-8.685 1.765-0.60058 2.0543-0.61075 19.702-0.69314 20.112-0.0939 20.575-0.0595 24.385 1.811 2.3833 1.1699 5.2462 3.7222 6.7986 6.061 1.1111 1.6739 2.4143 5.1862 2.7062 7.2936l0.18133 1.3091h-65.9z" fill="#40c4eb" stroke-width="1.1024"/>
</g>
<g transform="rotate(12.339 -72.324 194.97)" stroke="#000">
<path transform="translate(.52917)" d="m57.335 162.24h18.974" fill="none" stroke-width=".26458px"/>
<rect x="57.747" y="157.17" width="18.562" height="23.099" ry="5.156" fill="#fff" stroke-width="1.0583"/>
<path transform="scale(.26458)" d="m220.45 611.91c0-1.3756 0.80841-4.0053 1.9453-6.3277 1.9133-3.9085 5.7419-7.1747 10.181-8.685 1.765-0.60058 2.0543-0.61075 19.702-0.69314 20.112-0.0939 20.575-0.0595 24.385 1.811 2.3833 1.1699 5.2462 3.7222 6.7986 6.061 1.1111 1.6739 2.4143 5.1862 2.7062 7.2936l0.18133 1.3091h-65.9z" fill="#40c4eb" stroke-width="1.1024"/>
</g>
<path d="m80.392 168.95h46.083" fill="none" stroke="#000" stroke-dasharray="0.35277778, 0.35277778" stroke-width=".35278"/>
<path d="m82.87 227.99h46.083" fill="none" stroke="#000" stroke-dasharray="0.35277778, 0.35277778" stroke-width=".35278"/>
<path d="m82.026 197.64h46.083" fill="none" stroke="#000" stroke-dasharray="0.35277778, 0.35277778" stroke-width=".35278"/>
<text x="62.177082" y="172.38126" fill="#000000" font-family="sans-serif" font-size="10.583px" letter-spacing="0px" stroke-width=".26458" word-spacing="0px" style="line-height:1.25" xml:space="preserve"><tspan x="62.177082" y="172.38126" font-weight="bold" stroke-width=".26458">1</tspan></text>
<text transform="rotate(13.769)" x="111.24199" y="182.11351" fill="#000000" font-family="sans-serif" font-size="10.583px" letter-spacing="0px" stroke-width=".26458" word-spacing="0px" style="line-height:1.25" xml:space="preserve"><tspan x="111.24199" y="182.11351" font-weight="bold" stroke-width=".26458">2</tspan></text>
<text transform="rotate(22.852)" x="150.79852" y="188.82086" fill="#000000" font-family="sans-serif" font-size="10.583px" letter-spacing="0px" stroke-width=".26458" word-spacing="0px" style="line-height:1.25" xml:space="preserve"><tspan x="150.79852" y="188.82086" font-weight="bold" stroke-width=".26458">3</tspan></text>
<text transform="scale(.83776 1.1937)" x="39.251858" y="53.991329" fill="#000000" font-family="sans-serif" font-size="12.633px" letter-spacing="0px" stroke-width=".31582" word-spacing="0px" style="line-height:1.25" xml:space="preserve"><tspan x="39.251858" y="53.991329" stroke-width=".31582"><tspan x="39.251858" y="53.991329" font-size="13.475px" font-weight="bold" stroke-width=".31582">$4 M</tspan></tspan></text>
</g>
<g transform="matrix(-.99998 .0056705 -.0034613 -.55495 221.24 272.87)">
<rect x="55.778" y="71.418" width="130.02" height="52.111" rx="0" ry="16.543" stroke="#000" stroke-width="1.1071"/>
<circle cx="64.774" cy="79.457" r="19.655" fill="#fff" stroke="#000" stroke-width="1.0583"/>
<text x="128.42479" y="147.75174" fill="#000000" font-family="sans-serif" font-size="10.583px" letter-spacing="0px" stroke-width=".26458" word-spacing="0px" style="line-height:1.25" xml:space="preserve"><tspan x="128.42479" y="147.75174" stroke-width=".26458"><tspan x="128.42479" y="147.75174" font-size="19.756px" font-weight="bold" stroke-width=".26458">RENT</tspan></tspan></text>
<text x="58.121056" y="136.35954" fill="#000000" font-family="sans-serif" font-size="10.583px" letter-spacing="0px" stroke-width=".26458" word-spacing="0px" style="line-height:1.25" xml:space="preserve"><tspan x="58.121056" y="136.35954"><tspan x="58.121056" y="136.35954" font-size="8.4667px" stroke-width=".26458">No. of </tspan></tspan><tspan x="58.121056" y="149.5887"><tspan x="58.121056" y="149.5887" font-size="8.4667px" stroke-width=".26458">Property Cards </tspan></tspan></text>
<text x="121.40363" y="94.479919" fill="#ffffff" font-family="sans-serif" font-size="10.583px" font-weight="bold" letter-spacing="0px" stroke-width=".26458" text-anchor="middle" word-spacing="0px" style="line-height:1.25" xml:space="preserve"><tspan x="123.21231" y="94.479919" text-align="center">BLACK </tspan><tspan x="121.40363" y="107.70908" text-align="center">PROPERTY CARD</tspan></text>
<text x="152.75209" y="170.73956" fill="#000000" font-family="sans-serif" font-size="10.583px" letter-spacing="0px" stroke-width=".26458" word-spacing="0px" style="line-height:1.25" xml:space="preserve"><tspan x="152.75209" y="170.73956" font-weight="bold" stroke-width=".26458">$1 M</tspan></text>
<text x="153.3354" y="199.43124" fill="#000000" font-family="sans-serif" font-size="10.583px" letter-spacing="0px" stroke-width=".26458" word-spacing="0px" style="line-height:1.25" xml:space="preserve"><tspan x="153.3354" y="199.43124" font-weight="bold" stroke-width=".26458">$2 M</tspan></text>
<text x="153.62706" y="229.52708" fill="#000000" font-family="sans-serif" font-size="10.583px" letter-spacing="0px" stroke-width=".26458" word-spacing="0px" style="line-height:1.25" xml:space="preserve"><tspan x="153.62706" y="229.52708" font-weight="bold" stroke-width=".26458">$3 M</tspan></text>
<text x="101.30189" y="255.20287" fill="#000000" font-family="sans-serif" font-size="10.583px" letter-spacing="0px" stroke-width=".26458" word-spacing="0px" style="line-height:1.25" xml:space="preserve"><tspan x="101.30189" y="255.20287" stroke-width=".26458"><tspan x="101.30189" y="255.20287" font-size="7.0556px" font-weight="bold" stroke-width=".26458">FULL SET</tspan></tspan></text>
<text x="82.460419" y="190.21011" fill="#000000" font-family="sans-serif" font-size="10.583px" letter-spacing="0px" stroke-width=".26458" word-spacing="0px" style="line-height:1.25" xml:space="preserve"><tspan x="82.460419" y="199.86562" stroke-width=".26458"/></text>
<text x="79.339447" y="194.19624" fill="#000000" font-family="sans-serif" font-size="10.583px" letter-spacing="0px" stroke-width=".26458" word-spacing="0px" style="line-height:1.25" xml:space="preserve"><tspan x="79.339447" y="203.85175" font-size="9.8778px" stroke-width=".26458"/></text>
<text x="152.92204" y="256.54922" fill="#000000" font-family="sans-serif" font-size="10.583px" letter-spacing="0px" stroke-width=".26458" word-spacing="0px" style="line-height:1.25" xml:space="preserve"><tspan x="152.92204" y="256.54922" font-weight="bold" stroke-width=".26458">$4 M</tspan></text>
<g transform="translate(15.14 -2.4316)" stroke="#000">
<path transform="translate(.52917)" d="m57.335 162.24h18.974" fill="none" stroke-width=".26458px"/>
<rect x="57.747" y="157.17" width="18.562" height="23.099" ry="5.156" fill="#fff" stroke-width="1.0583"/>
<path transform="scale(.26458)" d="m220.45 611.91c0-1.3756 0.80841-4.0053 1.9453-6.3277 1.9133-3.9085 5.7419-7.1747 10.181-8.685 1.765-0.60058 2.0543-0.61075 19.702-0.69314 20.112-0.0939 20.575-0.0595 24.385 1.811 2.3833 1.1699 5.2462 3.7222 6.7986 6.061 1.1111 1.6739 2.4143 5.1862 2.7062 7.2936l0.18133 1.3091h-65.9z" stroke-width="1.1024"/>
</g>
<g transform="rotate(-39.589 146.98 179.95)" stroke="#000">
<path transform="translate(.52917)" d="m57.335 162.24h18.974" fill="none" stroke-width=".26458px"/>
<rect x="57.747" y="157.17" width="18.562" height="23.099" ry="5.156" fill="#fff" stroke-width="1.0583"/>
<path transform="scale(.26458)" d="m220.45 611.91c0-1.3756 0.80841-4.0053 1.9453-6.3277 1.9133-3.9085 5.7419-7.1747 10.181-8.685 1.765-0.60058 2.0543-0.61075 19.702-0.69314 20.112-0.0939 20.575-0.0595 24.385 1.811 2.3833 1.1699 5.2462 3.7222 6.7986 6.061 1.1111 1.6739 2.4143 5.1862 2.7062 7.2936l0.18133 1.3091h-65.9z" stroke-width="1.1024"/>
</g>
<g transform="translate(16.251 53.407)" stroke="#000">
<path transform="translate(.52917)" d="m57.335 162.24h18.974" fill="none" stroke-width=".26458px"/>
<rect x="57.747" y="157.17" width="18.562" height="23.099" ry="5.156" fill="#fff" stroke-width="1.0583"/>
<path transform="scale(.26458)" d="m220.45 611.91c0-1.3756 0.80841-4.0053 1.9453-6.3277 1.9133-3.9085 5.7419-7.1747 10.181-8.685 1.765-0.60058 2.0543-0.61075 19.702-0.69314 20.112-0.0939 20.575-0.0595 24.385 1.811 2.3833 1.1699 5.2462 3.7222 6.7986 6.061 1.1111 1.6739 2.4143 5.1862 2.7062 7.2936l0.18133 1.3091h-65.9z" stroke-width="1.1024"/>
</g>
<g transform="rotate(16.935 -113.5 261.55)" stroke="#000">
<path transform="translate(.52917)" d="m57.335 162.24h18.974" fill="none" stroke-width=".26458px"/>
<rect x="57.747" y="157.17" width="18.562" height="23.099" ry="5.156" fill="#fff" stroke-width="1.0583"/>
<path transform="scale(.26458)" d="m220.45 611.91c0-1.3756 0.80841-4.0053 1.9453-6.3277 1.9133-3.9085 5.7419-7.1747 10.181-8.685 1.765-0.60058 2.0543-0.61075 19.702-0.69314 20.112-0.0939 20.575-0.0595 24.385 1.811 2.3833 1.1699 5.2462 3.7222 6.7986 6.061 1.1111 1.6739 2.4143 5.1862 2.7062 7.2936l0.18133 1.3091h-65.9z" stroke-width="1.1024"/>
</g>
<g transform="rotate(-13.085 176.34 125.43)" stroke="#000">
<path transform="translate(.52917)" d="m57.335 162.24h18.974" fill="none" stroke-width=".26458px"/>
<rect x="57.747" y="157.17" width="18.562" height="23.099" ry="5.156" fill="#fff" stroke-width="1.0583"/>
<path transform="scale(.26458)" d="m220.45 611.91c0-1.3756 0.80841-4.0053 1.9453-6.3277 1.9133-3.9085 5.7419-7.1747 10.181-8.685 1.765-0.60058 2.0543-0.61075 19.702-0.69314 20.112-0.0939 20.575-0.0595 24.385 1.811 2.3833 1.1699 5.2462 3.7222 6.7986 6.061 1.1111 1.6739 2.4143 5.1862 2.7062 7.2936l0.18133 1.3091h-65.9z" stroke-width="1.1024"/>
</g>
<g transform="rotate(12.339 -52.108 264.65)" stroke="#000">
<path transform="translate(.52917)" d="m57.335 162.24h18.974" fill="none" stroke-width=".26458px"/>
<rect x="57.747" y="157.17" width="18.562" height="23.099" ry="5.156" fill="#fff" stroke-width="1.0583"/>
<path transform="scale(.26458)" d="m220.45 611.91c0-1.3756 0.80841-4.0053 1.9453-6.3277 1.9133-3.9085 5.7419-7.1747 10.181-8.685 1.765-0.60058 2.0543-0.61075 19.702-0.69314 20.112-0.0939 20.575-0.0595 24.385 1.811 2.3833 1.1699 5.2462 3.7222 6.7986 6.061 1.1111 1.6739 2.4143 5.1862 2.7062 7.2936l0.18133 1.3091h-65.9z" stroke-width="1.1024"/>
</g>
<path d="m96.936 167.69h46.083" fill="none" stroke="#000" stroke-dasharray="0.35277778, 0.35277778" stroke-width=".35278"/>
<path d="m99.414 226.73h46.083" fill="none" stroke="#000" stroke-dasharray="0.35277778, 0.35277778" stroke-width=".35278"/>
<path d="m98.57 196.38h46.083" fill="none" stroke="#000" stroke-dasharray="0.35277778, 0.35277778" stroke-width=".35278"/>
<text x="78.720833" y="171.11667" fill="#000000" font-family="sans-serif" font-size="10.583px" letter-spacing="0px" stroke-width=".26458" word-spacing="0px" style="line-height:1.25" xml:space="preserve"><tspan x="78.720833" y="171.11667" font-weight="bold" stroke-width=".26458">1</tspan></text>
<text transform="rotate(13.769)" x="124.96355" y="175.26936" fill="#000000" font-family="sans-serif" font-size="10.583px" letter-spacing="0px" stroke-width=".26458" word-spacing="0px" style="line-height:1.25" xml:space="preserve"><tspan x="124.96355" y="175.26936" font-weight="bold" stroke-width=".26458">2</tspan></text>
<text transform="rotate(22.852)" x="162.57446" y="179.61458" fill="#000000" font-family="sans-serif" font-size="10.583px" letter-spacing="0px" stroke-width=".26458" word-spacing="0px" style="line-height:1.25" xml:space="preserve"><tspan x="162.57446" y="179.61458" font-weight="bold" stroke-width=".26458">3</tspan></text>
<text transform="scale(.83776 1.1937)" x="58.999374" y="71.550941" fill="#000000" font-family="sans-serif" font-size="12.633px" letter-spacing="0px" stroke-width=".31582" word-spacing="0px" style="line-height:1.25" xml:space="preserve"><tspan x="58.999374" y="71.550941" stroke-width=".31582"><tspan x="58.999374" y="71.550941" font-size="13.475px" font-weight="bold" stroke-width=".31582">$4 M</tspan></tspan></text>
<g transform="rotate(-60.99 141.64 204.69)" stroke="#000">
<path transform="translate(.52917)" d="m57.335 162.24h18.974" fill="none" stroke-width=".26458px"/>
<rect x="57.747" y="157.17" width="18.562" height="23.099" ry="5.156" fill="#fff" stroke-width="1.0583"/>
<path transform="scale(.26458)" d="m220.45 611.91c0-1.3756 0.80841-4.0053 1.9453-6.3277 1.9133-3.9085 5.7419-7.1747 10.181-8.685 1.765-0.60058 2.0543-0.61075 19.702-0.69314 20.112-0.0939 20.575-0.0595 24.385 1.811 2.3833 1.1699 5.2462 3.7222 6.7986 6.061 1.1111 1.6739 2.4143 5.1862 2.7062 7.2936l0.18133 1.3091h-65.9z" stroke-width="1.1024"/>
</g>
<g transform="rotate(-39.589 188.07 192.88)" stroke="#000">
<path transform="translate(.52917)" d="m57.335 162.24h18.974" fill="none" stroke-width=".26458px"/>
<rect x="57.747" y="157.17" width="18.562" height="23.099" ry="5.156" fill="#fff" stroke-width="1.0583"/>
<path transform="scale(.26458)" d="m220.45 611.91c0-1.3756 0.80841-4.0053 1.9453-6.3277 1.9133-3.9085 5.7419-7.1747 10.181-8.685 1.765-0.60058 2.0543-0.61075 19.702-0.69314 20.112-0.0939 20.575-0.0595 24.385 1.811 2.3833 1.1699 5.2462 3.7222 6.7986 6.061 1.1111 1.6739 2.4143 5.1862 2.7062 7.2936l0.18133 1.3091h-65.9z" stroke-width="1.1024"/>
</g>
<g transform="translate(17.433 82.561)" stroke="#000">
<path transform="translate(.52917)" d="m57.335 162.24h18.974" fill="none" stroke-width=".26458px"/>
<rect x="57.747" y="157.17" width="18.562" height="23.099" ry="5.156" fill="#fff" stroke-width="1.0583"/>
<path transform="scale(.26458)" d="m220.45 611.91c0-1.3756 0.80841-4.0053 1.9453-6.3277 1.9133-3.9085 5.7419-7.1747 10.181-8.685 1.765-0.60058 2.0543-0.61075 19.702-0.69314 20.112-0.0939 20.575-0.0595 24.385 1.811 2.3833 1.1699 5.2462 3.7222 6.7986 6.061 1.1111 1.6739 2.4143 5.1862 2.7062 7.2936l0.18133 1.3091h-65.9z" stroke-width="1.1024"/>
</g>
<g transform="rotate(16.935 -210.83 280.1)" stroke="#000">
<path transform="translate(.52917)" d="m57.335 162.24h18.974" fill="none" stroke-width=".26458px"/>
<rect x="57.747" y="157.17" width="18.562" height="23.099" ry="5.156" fill="#fff" stroke-width="1.0583"/>
<path transform="scale(.26458)" d="m220.45 611.91c0-1.3756 0.80841-4.0053 1.9453-6.3277 1.9133-3.9085 5.7419-7.1747 10.181-8.685 1.765-0.60058 2.0543-0.61075 19.702-0.69314 20.112-0.0939 20.575-0.0595 24.385 1.811 2.3833 1.1699 5.2462 3.7222 6.7986 6.061 1.1111 1.6739 2.4143 5.1862 2.7062 7.2936l0.18133 1.3091h-65.9z" stroke-width="1.1024"/>
</g>
<text transform="rotate(22.852)" x="175.22614" y="206.01445" fill="#000000" font-family="sans-serif" font-size="10.583px" letter-spacing="0px" stroke-width=".26458" word-spacing="0px" style="line-height:1.25" xml:space="preserve"><tspan x="175.22614" y="206.01445" font-weight="bold" stroke-width=".26458">4</tspan></text>
<path d="m101.22 257.09h39.722" fill="none" stroke="#000" stroke-dasharray="0.3275266, 0.3275266" stroke-width=".32753"/>
</g>
</g>
</svg>
