<?xml version="1.0" encoding="UTF-8"?>
<svg width="210mm" height="297mm" version="1.1" viewBox="25.022 30.98 161.77 211.67" xmlns="http://www.w3.org/2000/svg" xmlns:cc="http://creativecommons.org/ns#" xmlns:dc="http://purl.org/dc/elements/1.1/" xmlns:rdf="http://www.w3.org/1999/02/22-rdf-syntax-ns#">
<metadata>
<rdf:RDF>
<cc:Work rdf:about="">
<dc:format>image/svg+xml</dc:format>
<dc:type rdf:resource="http://purl.org/dc/dcmitype/StillImage"/>
<dc:title/>
</cc:Work>
</rdf:RDF>
</metadata>
<g transform="translate(1.5875 -3.7042)">
<rect x="23.435" y="34.685" width="161.77" height="211.67" ry="15.119" fill="#fff" stroke="#000" stroke-width="1.0583"/>
<g transform="matrix(1 0 0 .45519 4.2333 21.691)">
<rect x="39.234" y="50.458" width="130.02" height="52.111" rx="0" ry="16.543" fill="#00ff79" stroke="#000" stroke-width="1.1071"/>
<circle cx="48.23" cy="58.497" r="19.655" fill="#fff" stroke="#000" stroke-width="1.0583"/>
<text x="111.88103" y="137.37497" fill="#000000" font-family="sans-serif" font-size="10.583px" letter-spacing="0px" stroke-width=".26458" word-spacing="0px" style="line-height:1.25" xml:space="preserve"><tspan x="111.88103" y="137.37497" stroke-width=".26458"><tspan x="111.88103" y="137.37497" font-size="19.756px" font-weight="bold" stroke-width=".26458">RENT</tspan></tspan></text>
<text x="41.577305" y="131.27443" fill="#000000" font-family="sans-serif" font-size="10.583px" letter-spacing="0px" stroke-width=".26458" word-spacing="0px" style="line-height:1.25" xml:space="preserve"><tspan x="41.577305" y="131.27443"><tspan x="41.577305" y="131.27443" font-size="8.4667px" stroke-width=".26458">No. of </tspan></tspan><tspan x="41.577305" y="144.5036"><tspan x="41.577305" y="144.5036" font-size="8.4667px" stroke-width=".26458">Property Cards </tspan></tspan></text>
<text x="104.85988" y="73.519814" fill="#000000" font-family="sans-serif" font-size="10.583px" font-weight="bold" letter-spacing="0px" stroke-width=".26458" text-anchor="middle" word-spacing="0px" style="line-height:1.25" xml:space="preserve"><tspan x="106.66856" y="73.519814" text-align="center">LIGHT GREEN </tspan><tspan x="104.85988" y="86.748978" text-align="center">PROPERTY CARD</tspan></text>
<text x="136.20834" y="170.41667" fill="#000000" font-family="sans-serif" font-size="10.583px" letter-spacing="0px" stroke-width=".26458" word-spacing="0px" style="line-height:1.25" xml:space="preserve"><tspan x="136.20834" y="170.41667" font-weight="bold" stroke-width=".26458">$1 M</tspan></text>
<text x="136.79166" y="200.16667" fill="#000000" font-family="sans-serif" font-size="10.583px" letter-spacing="0px" stroke-width=".26458" word-spacing="0px" style="line-height:1.25" xml:space="preserve"><tspan x="136.79166" y="200.16667" font-weight="bold" stroke-width=".26458">$2 M</tspan></text>
<text x="88.462296" y="195.08443" fill="#000000" font-family="sans-serif" font-size="10.583px" letter-spacing="0px" stroke-width=".26458" word-spacing="0px" style="line-height:1.25" xml:space="preserve"><tspan x="88.462296" y="195.08443" stroke-width=".26458"><tspan x="88.462296" y="195.08443" font-size="7.0556px" font-weight="bold" stroke-width=".26458">FULL SET</tspan></tspan></text>
<text x="65.916664" y="169.25" fill="#000000" font-family="sans-serif" font-size="10.583px" letter-spacing="0px" stroke-width=".26458" word-spacing="0px" style="line-height:1.25" xml:space="preserve"><tspan x="65.916664" y="178.9055" stroke-width=".26458"/></text>
<text x="62.7957" y="173.23613" fill="#000000" font-family="sans-serif" font-size="10.583px" letter-spacing="0px" stroke-width=".26458" word-spacing="0px" style="line-height:1.25" xml:space="preserve"><tspan x="62.7957" y="182.89163" font-size="9.8778px" stroke-width=".26458"/></text>
<g transform="translate(-1.4042 -1.1667)" stroke="#000">
<path transform="translate(.52917)" d="m57.335 162.24h18.974" fill="none" stroke-width=".26458px"/>
<rect x="57.747" y="157.17" width="18.562" height="23.099" ry="5.156" fill="#fff" stroke-width="1.0583"/>
<path transform="scale(.26458)" d="m220.45 611.91c0-1.3756 0.80841-4.0053 1.9453-6.3277 1.9133-3.9085 5.7419-7.1747 10.181-8.685 1.765-0.60058 2.0543-0.61075 19.702-0.69314 20.112-0.0939 20.575-0.0595 24.385 1.811 2.3833 1.1699 5.2462 3.7222 6.7986 6.061 1.1111 1.6739 2.4143 5.1862 2.7062 7.2936l0.18133 1.3091h-65.9z" fill="#00ff79" stroke-width="1.1024"/>
</g>
<g transform="rotate(-13.085 180.47 193.74)" stroke="#000">
<path transform="translate(.52917)" d="m57.335 162.24h18.974" fill="none" stroke-width=".26458px"/>
<rect x="57.747" y="157.17" width="18.562" height="23.099" ry="5.156" fill="#fff" stroke-width="1.0583"/>
<path transform="scale(.26458)" d="m220.45 611.91c0-1.3756 0.80841-4.0053 1.9453-6.3277 1.9133-3.9085 5.7419-7.1747 10.181-8.685 1.765-0.60058 2.0543-0.61075 19.702-0.69314 20.112-0.0939 20.575-0.0595 24.385 1.811 2.3833 1.1699 5.2462 3.7222 6.7986 6.061 1.1111 1.6739 2.4143 5.1862 2.7062 7.2936l0.18133 1.3091h-65.9z" fill="#00ff79" stroke-width="1.1024"/>
</g>
<g transform="rotate(12.339 -72.324 194.97)" stroke="#000">
<path transform="translate(.52917)" d="m57.335 162.24h18.974" fill="none" stroke-width=".26458px"/>
<rect x="57.747" y="157.17" width="18.562" height="23.099" ry="5.156" fill="#fff" stroke-width="1.0583"/>
<path transform="scale(.26458)" d="m220.45 611.91c0-1.3756 0.80841-4.0053 1.9453-6.3277 1.9133-3.9085 5.7419-7.1747 10.181-8.685 1.765-0.60058 2.0543-0.61075 19.702-0.69314 20.112-0.0939 20.575-0.0595 24.385 1.811 2.3833 1.1699 5.2462 3.7222 6.7986 6.061 1.1111 1.6739 2.4143 5.1862 2.7062 7.2936l0.18133 1.3091h-65.9z" fill="#00ff79" stroke-width="1.1024"/>
</g>
<path d="m80.392 168.95h46.083" fill="none" stroke="#000" stroke-dasharray="0.35277778, 0.35277778" stroke-width=".35278"/>
<path d="m82.026 197.64h46.083" fill="none" stroke="#000" stroke-dasharray="0.35277778, 0.35277778" stroke-width=".35278"/>
<text x="62.177082" y="172.38126" fill="#000000" font-family="sans-serif" font-size="10.583px" letter-spacing="0px" stroke-width=".26458" word-spacing="0px" style="line-height:1.25" xml:space="preserve"><tspan x="62.177082" y="172.38126" font-weight="bold" stroke-width=".26458">1</tspan></text>
<text transform="rotate(13.769)" x="111.24199" y="182.11351" fill="#000000" font-family="sans-serif" font-size="10.583px" letter-spacing="0px" stroke-width=".26458" word-spacing="0px" style="line-height:1.25" xml:space="preserve"><tspan x="111.24199" y="182.11351" font-weight="bold" stroke-width=".26458">2</tspan></text>
<text transform="scale(.83776 1.1937)" x="39.251858" y="53.991329" fill="#000000" font-family="sans-serif" font-size="12.633px" letter-spacing="0px" stroke-width=".31582" word-spacing="0px" style="line-height:1.25" xml:space="preserve"><tspan x="39.251858" y="53.991329" stroke-width=".31582"><tspan x="39.251858" y="53.991329" font-size="13.475px" font-weight="bold" stroke-width=".31582">$2 M</tspan></tspan></text>
</g>
<g transform="matrix(-1 -.00017794 .00010228 -.57481 196.31 282.9)">
<rect x="32.205" y="84.888" width="130.02" height="52.111" rx="0" ry="16.543" stroke="#000" stroke-width="1.1071"/>
<circle cx="41.2" cy="92.928" r="19.655" fill="#fff" stroke="#000" stroke-width="1.0583"/>
<text x="104.85162" y="161.22212" fill="#000000" font-family="sans-serif" font-size="10.583px" letter-spacing="0px" stroke-width=".26458" word-spacing="0px" style="line-height:1.25" xml:space="preserve"><tspan x="104.85162" y="161.22212" stroke-width=".26458"><tspan x="104.85162" y="161.22212" font-size="19.756px" font-weight="bold" stroke-width=".26458">RENT</tspan></tspan></text>
<text x="34.547882" y="149.82993" fill="#000000" font-family="sans-serif" font-size="10.583px" letter-spacing="0px" stroke-width=".26458" word-spacing="0px" style="line-height:1.25" xml:space="preserve"><tspan x="34.547882" y="149.82993"><tspan x="34.547882" y="149.82993" font-size="8.4667px" stroke-width=".26458">No. of </tspan></tspan><tspan x="34.547882" y="163.05908"><tspan x="34.547882" y="163.05908" font-size="8.4667px" stroke-width=".26458">Property Cards </tspan></tspan></text>
<text x="97.830467" y="107.9503" fill="#ffffff" font-family="sans-serif" font-size="10.583px" font-weight="bold" letter-spacing="0px" stroke-width=".26458" text-anchor="middle" word-spacing="0px" style="line-height:1.25" xml:space="preserve"><tspan x="99.639145" y="107.9503" text-align="center">BLACK </tspan><tspan x="97.830467" y="121.17947" text-align="center">PROPERTY CARD</tspan></text>
<text x="129.17891" y="184.20995" fill="#000000" font-family="sans-serif" font-size="10.583px" letter-spacing="0px" stroke-width=".26458" word-spacing="0px" style="line-height:1.25" xml:space="preserve"><tspan x="129.17891" y="184.20995" font-weight="bold" stroke-width=".26458">$1 M</tspan></text>
<text x="129.76224" y="212.90163" fill="#000000" font-family="sans-serif" font-size="10.583px" letter-spacing="0px" stroke-width=".26458" word-spacing="0px" style="line-height:1.25" xml:space="preserve"><tspan x="129.76224" y="212.90163" font-weight="bold" stroke-width=".26458">$2 M</tspan></text>
<text x="130.05388" y="242.99747" fill="#000000" font-family="sans-serif" font-size="10.583px" letter-spacing="0px" stroke-width=".26458" word-spacing="0px" style="line-height:1.25" xml:space="preserve"><tspan x="130.05388" y="242.99747" font-weight="bold" stroke-width=".26458">$3 M</tspan></text>
<text x="77.728714" y="268.67325" fill="#000000" font-family="sans-serif" font-size="10.583px" letter-spacing="0px" stroke-width=".26458" word-spacing="0px" style="line-height:1.25" xml:space="preserve"><tspan x="77.728714" y="268.67325" stroke-width=".26458"><tspan x="77.728714" y="268.67325" font-size="7.0556px" font-weight="bold" stroke-width=".26458">FULL SET</tspan></tspan></text>
<text x="58.887245" y="203.6805" fill="#000000" font-family="sans-serif" font-size="10.583px" letter-spacing="0px" stroke-width=".26458" word-spacing="0px" style="line-height:1.25" xml:space="preserve"><tspan x="58.887245" y="213.336" stroke-width=".26458"/></text>
<text x="55.766277" y="207.66663" fill="#000000" font-family="sans-serif" font-size="10.583px" letter-spacing="0px" stroke-width=".26458" word-spacing="0px" style="line-height:1.25" xml:space="preserve"><tspan x="55.766277" y="217.32213" font-size="9.8778px" stroke-width=".26458"/></text>
<text x="129.34888" y="270.01962" fill="#000000" font-family="sans-serif" font-size="10.583px" letter-spacing="0px" stroke-width=".26458" word-spacing="0px" style="line-height:1.25" xml:space="preserve"><tspan x="129.34888" y="270.01962" font-weight="bold" stroke-width=".26458">$4 M</tspan></text>
<g transform="translate(-8.4336 11.039)" stroke="#000">
<path transform="translate(.52917)" d="m57.335 162.24h18.974" fill="none" stroke-width=".26458px"/>
<rect x="57.747" y="157.17" width="18.562" height="23.099" ry="5.156" fill="#fff" stroke-width="1.0583"/>
<path transform="scale(.26458)" d="m220.45 611.91c0-1.3756 0.80841-4.0053 1.9453-6.3277 1.9133-3.9085 5.7419-7.1747 10.181-8.685 1.765-0.60058 2.0543-0.61075 19.702-0.69314 20.112-0.0939 20.575-0.0595 24.385 1.811 2.3833 1.1699 5.2462 3.7222 6.7986 6.061 1.1111 1.6739 2.4143 5.1862 2.7062 7.2936l0.18133 1.3091h-65.9z" stroke-width="1.1024"/>
</g>
<g transform="rotate(-39.589 153.9 219.43)" stroke="#000">
<path transform="translate(.52917)" d="m57.335 162.24h18.974" fill="none" stroke-width=".26458px"/>
<rect x="57.747" y="157.17" width="18.562" height="23.099" ry="5.156" fill="#fff" stroke-width="1.0583"/>
<path transform="scale(.26458)" d="m220.45 611.91c0-1.3756 0.80841-4.0053 1.9453-6.3277 1.9133-3.9085 5.7419-7.1747 10.181-8.685 1.765-0.60058 2.0543-0.61075 19.702-0.69314 20.112-0.0939 20.575-0.0595 24.385 1.811 2.3833 1.1699 5.2462 3.7222 6.7986 6.061 1.1111 1.6739 2.4143 5.1862 2.7062 7.2936l0.18133 1.3091h-65.9z" stroke-width="1.1024"/>
</g>
<g transform="translate(-7.322 66.877)" stroke="#000">
<path transform="translate(.52917)" d="m57.335 162.24h18.974" fill="none" stroke-width=".26458px"/>
<rect x="57.747" y="157.17" width="18.562" height="23.099" ry="5.156" fill="#fff" stroke-width="1.0583"/>
<path transform="scale(.26458)" d="m220.45 611.91c0-1.3756 0.80841-4.0053 1.9453-6.3277 1.9133-3.9085 5.7419-7.1747 10.181-8.685 1.765-0.60058 2.0543-0.61075 19.702-0.69314 20.112-0.0939 20.575-0.0595 24.385 1.811 2.3833 1.1699 5.2462 3.7222 6.7986 6.061 1.1111 1.6739 2.4143 5.1862 2.7062 7.2936l0.18133 1.3091h-65.9z" stroke-width="1.1024"/>
</g>
<g transform="rotate(16.935 -170.53 189.12)" stroke="#000">
<path transform="translate(.52917)" d="m57.335 162.24h18.974" fill="none" stroke-width=".26458px"/>
<rect x="57.747" y="157.17" width="18.562" height="23.099" ry="5.156" fill="#fff" stroke-width="1.0583"/>
<path transform="scale(.26458)" d="m220.45 611.91c0-1.3756 0.80841-4.0053 1.9453-6.3277 1.9133-3.9085 5.7419-7.1747 10.181-8.685 1.765-0.60058 2.0543-0.61075 19.702-0.69314 20.112-0.0939 20.575-0.0595 24.385 1.811 2.3833 1.1699 5.2462 3.7222 6.7986 6.061 1.1111 1.6739 2.4143 5.1862 2.7062 7.2936l0.18133 1.3091h-65.9z" stroke-width="1.1024"/>
</g>
<g transform="rotate(-13.085 223.28 234.93)" stroke="#000">
<path transform="translate(.52917)" d="m57.335 162.24h18.974" fill="none" stroke-width=".26458px"/>
<rect x="57.747" y="157.17" width="18.562" height="23.099" ry="5.156" fill="#fff" stroke-width="1.0583"/>
<path transform="scale(.26458)" d="m220.45 611.91c0-1.3756 0.80841-4.0053 1.9453-6.3277 1.9133-3.9085 5.7419-7.1747 10.181-8.685 1.765-0.60058 2.0543-0.61075 19.702-0.69314 20.112-0.0939 20.575-0.0595 24.385 1.811 2.3833 1.1699 5.2462 3.7222 6.7986 6.061 1.1111 1.6739 2.4143 5.1862 2.7062 7.2936l0.18133 1.3091h-65.9z" stroke-width="1.1024"/>
</g>
<g transform="rotate(12.339 -126.2 162.35)" stroke="#000">
<path transform="translate(.52917)" d="m57.335 162.24h18.974" fill="none" stroke-width=".26458px"/>
<rect x="57.747" y="157.17" width="18.562" height="23.099" ry="5.156" fill="#fff" stroke-width="1.0583"/>
<path transform="scale(.26458)" d="m220.45 611.91c0-1.3756 0.80841-4.0053 1.9453-6.3277 1.9133-3.9085 5.7419-7.1747 10.181-8.685 1.765-0.60058 2.0543-0.61075 19.702-0.69314 20.112-0.0939 20.575-0.0595 24.385 1.811 2.3833 1.1699 5.2462 3.7222 6.7986 6.061 1.1111 1.6739 2.4143 5.1862 2.7062 7.2936l0.18133 1.3091h-65.9z" stroke-width="1.1024"/>
</g>
<path d="m73.363 181.16h46.083" fill="none" stroke="#000" stroke-dasharray="0.35277778, 0.35277778" stroke-width=".35278"/>
<path d="m75.841 240.2h46.083" fill="none" stroke="#000" stroke-dasharray="0.35277778, 0.35277778" stroke-width=".35278"/>
<path d="m74.997 209.85h46.083" fill="none" stroke="#000" stroke-dasharray="0.35277778, 0.35277778" stroke-width=".35278"/>
<text x="55.147663" y="184.58705" fill="#000000" font-family="sans-serif" font-size="10.583px" letter-spacing="0px" stroke-width=".26458" word-spacing="0px" style="line-height:1.25" xml:space="preserve"><tspan x="55.147663" y="184.58705" font-weight="bold" stroke-width=".26458">1</tspan></text>
<text transform="rotate(13.769)" x="105.27383" y="193.96323" fill="#000000" font-family="sans-serif" font-size="10.583px" letter-spacing="0px" stroke-width=".26458" word-spacing="0px" style="line-height:1.25" xml:space="preserve"><tspan x="105.27383" y="193.96323" font-weight="bold" stroke-width=".26458">2</tspan></text>
<text transform="rotate(22.852)" x="146.08287" y="201.18245" fill="#000000" font-family="sans-serif" font-size="10.583px" letter-spacing="0px" stroke-width=".26458" word-spacing="0px" style="line-height:1.25" xml:space="preserve"><tspan x="146.08287" y="201.18245" font-weight="bold" stroke-width=".26458">3</tspan></text>
<text transform="scale(.83776 1.1937)" x="30.861158" y="82.835938" fill="#000000" font-family="sans-serif" font-size="12.633px" letter-spacing="0px" stroke-width=".31582" word-spacing="0px" style="line-height:1.25" xml:space="preserve"><tspan x="30.861158" y="82.835938" stroke-width=".31582"><tspan x="30.861158" y="82.835938" font-size="13.475px" font-weight="bold" stroke-width=".31582">$2 M</tspan></tspan></text>
<g transform="rotate(-60.99 141.29 231.44)" stroke="#000">
<path transform="translate(.52917)" d="m57.335 162.24h18.974" fill="none" stroke-width=".26458px"/>
<rect x="57.747" y="157.17" width="18.562" height="23.099" ry="5.156" fill="#fff" stroke-width="1.0583"/>
<path transform="scale(.26458)" d="m220.45 611.91c0-1.3756 0.80841-4.0053 1.9453-6.3277 1.9133-3.9085 5.7419-7.1747 10.181-8.685 1.765-0.60058 2.0543-0.61075 19.702-0.69314 20.112-0.0939 20.575-0.0595 24.385 1.811 2.3833 1.1699 5.2462 3.7222 6.7986 6.061 1.1111 1.6739 2.4143 5.1862 2.7062 7.2936l0.18133 1.3091h-65.9z" stroke-width="1.1024"/>
</g>
<g transform="rotate(-39.589 195 232.36)" stroke="#000">
<path transform="translate(.52917)" d="m57.335 162.24h18.974" fill="none" stroke-width=".26458px"/>
<rect x="57.747" y="157.17" width="18.562" height="23.099" ry="5.156" fill="#fff" stroke-width="1.0583"/>
<path transform="scale(.26458)" d="m220.45 611.91c0-1.3756 0.80841-4.0053 1.9453-6.3277 1.9133-3.9085 5.7419-7.1747 10.181-8.685 1.765-0.60058 2.0543-0.61075 19.702-0.69314 20.112-0.0939 20.575-0.0595 24.385 1.811 2.3833 1.1699 5.2462 3.7222 6.7986 6.061 1.1111 1.6739 2.4143 5.1862 2.7062 7.2936l0.18133 1.3091h-65.9z" stroke-width="1.1024"/>
</g>
<g transform="translate(-6.1401 96.032)" stroke="#000">
<path transform="translate(.52917)" d="m57.335 162.24h18.974" fill="none" stroke-width=".26458px"/>
<rect x="57.747" y="157.17" width="18.562" height="23.099" ry="5.156" fill="#fff" stroke-width="1.0583"/>
<path transform="scale(.26458)" d="m220.45 611.91c0-1.3756 0.80841-4.0053 1.9453-6.3277 1.9133-3.9085 5.7419-7.1747 10.181-8.685 1.765-0.60058 2.0543-0.61075 19.702-0.69314 20.112-0.0939 20.575-0.0595 24.385 1.811 2.3833 1.1699 5.2462 3.7222 6.7986 6.061 1.1111 1.6739 2.4143 5.1862 2.7062 7.2936l0.18133 1.3091h-65.9z" stroke-width="1.1024"/>
</g>
<g transform="rotate(16.935 -267.86 207.66)" stroke="#000">
<path transform="translate(.52917)" d="m57.335 162.24h18.974" fill="none" stroke-width=".26458px"/>
<rect x="57.747" y="157.17" width="18.562" height="23.099" ry="5.156" fill="#fff" stroke-width="1.0583"/>
<path transform="scale(.26458)" d="m220.45 611.91c0-1.3756 0.80841-4.0053 1.9453-6.3277 1.9133-3.9085 5.7419-7.1747 10.181-8.685 1.765-0.60058 2.0543-0.61075 19.702-0.69314 20.112-0.0939 20.575-0.0595 24.385 1.811 2.3833 1.1699 5.2462 3.7222 6.7986 6.061 1.1111 1.6739 2.4143 5.1862 2.7062 7.2936l0.18133 1.3091h-65.9z" stroke-width="1.1024"/>
</g>
<text transform="rotate(22.852)" x="158.73454" y="227.58232" fill="#000000" font-family="sans-serif" font-size="10.583px" letter-spacing="0px" stroke-width=".26458" word-spacing="0px" style="line-height:1.25" xml:space="preserve"><tspan x="158.73454" y="227.58232" font-weight="bold" stroke-width=".26458">4</tspan></text>
<path d="m77.645 270.56h39.722" fill="none" stroke="#000" stroke-dasharray="0.3275266, 0.3275266" stroke-width=".32753"/>
</g>
</g>
</svg>
