<?xml version="1.0" encoding="UTF-8"?>
<svg width="210mm" height="297mm" version="1.1" viewBox="25.022 30.98 161.77 211.67" xmlns="http://www.w3.org/2000/svg" xmlns:cc="http://creativecommons.org/ns#" xmlns:dc="http://purl.org/dc/elements/1.1/" xmlns:rdf="http://www.w3.org/1999/02/22-rdf-syntax-ns#">
<metadata>
<rdf:RDF>
<cc:Work rdf:about="">
<dc:format>image/svg+xml</dc:format>
<dc:type rdf:resource="http://purl.org/dc/dcmitype/StillImage"/>
<dc:title/>
</cc:Work>
</rdf:RDF>
</metadata>
<g transform="translate(1.5875 -3.7042)">
<g>
<rect x="23.435" y="34.685" width="161.77" height="211.67" ry="15.119" fill="#fff" stroke="#000" stroke-width="1.0583"/>
<rect x="39.234" y="50.458" width="130.02" height="52.111" rx="0" ry="16.543" fill="#fff" stroke="#000" stroke-width="1.1071"/>
<text x="104.85988" y="74.048981" fill="#000000" font-family="sans-serif" font-size="10.583px" font-weight="bold" letter-spacing="0px" stroke-width=".26458" text-anchor="middle" word-spacing="0px" style="line-height:10.93611145px" xml:space="preserve"><tspan x="106.66856" y="74.048981" text-align="center" style="line-height:10.93611145px">PROPERTY </tspan><tspan x="104.85988" y="84.985092" text-align="center" style="line-height:10.93611145px">WILD CARD</tspan></text>
</g>
</g>
<path d="m40.037 84.467 130.59-0.37418" fill="none" stroke="#000" stroke-width="1.0936"/>
<path d="m67.204 84.275v14.817" fill="none" stroke="#000" stroke-width="1.0565"/>
<path d="m80.433 83.746v14.817" fill="none" stroke="#000" stroke-width="1.0565"/>
<path d="m93.663 84.275v14.817" fill="none" stroke="#000" stroke-width="1.0565"/>
<path d="m106.36 84.275v14.817" fill="none" stroke="#000" stroke-width="1.0565"/>
<path d="m119.06 84.275v14.817" fill="none" stroke="#000" stroke-width="1.0565"/>
<path d="m144.46 84.275v14.817" fill="none" stroke="#000" stroke-width="1.0565"/>
<path d="m156.63 84.275v14.817" fill="none" stroke="#000" stroke-width="1.0565"/>
<path d="m131.76 84.275v14.817" fill="none" stroke="#000" stroke-width="1.0565"/>
<path d="m53.975 83.746v14.817" fill="none" stroke="#000" stroke-width="1.0565"/>
<path transform="scale(.26458)" d="m189.33 363.95c-14.125-7.293-27.583-24.185-30.37-38.121l-0.85422-4.2711h42.78v23.335c0 17.761-0.42223 23.318-1.7678 23.266-0.97227-0.0374-5.3769-1.9314-9.788-4.2089z" fill="#fff"/>
<g>
<path transform="scale(.26458)" d="m189.33 363.95c-14.133-7.2968-27.611-24.101-30.316-37.796l-0.90788-4.5962h42.78v23.335c0 17.761-0.42223 23.318-1.7678 23.266-0.97227-0.0374-5.3769-1.9314-9.788-4.2089z" fill="#c87137"/>
<path transform="scale(.26458)" d="m208.31 370.11c-1.3164-0.53119-1.7678-6.8213-1.7678-24.637v-23.924h45.255v49.497l-20.86-0.11165c-11.473-0.0614-21.655-0.43264-22.627-0.82496z" fill="#1919a6"/>
<path transform="scale(.26458)" d="m256.04 346.3v-24.749h45.255v49.497h-45.255z" fill="#e84fe8"/>
<path transform="scale(.26458)" d="m306.95 346.3v-24.749h43.841v49.497h-43.841z" fill="#e84fe8"/>
<path transform="scale(.26458)" d="m356.44 346.3v-24.749h42.426v49.497h-42.426z" fill="#e84fe8"/>
<path transform="scale(.26458)" d="m306.95 346.3v-24.749h43.841v49.497h-43.841z" fill="#fa6b0b"/>
<path transform="scale(.26458)" d="m356.44 346.3v-24.749h42.426v49.497h-42.426z" fill="#ffd42a"/>
<path transform="scale(.26458)" d="m404.53 346.3v-24.749h42.426v49.497h-42.426z" fill="#f00"/>
<path transform="scale(.26458)" d="m452.61 346.3v-24.749h42.426v49.497h-42.426z" fill="#17a537"/>
<path transform="scale(.26458)" d="m500.69 346.3v-24.749h42.426v49.497h-42.426z" fill="#40c4eb"/>
<path transform="scale(.26458)" d="m548.78 345.6v-25.456h41.012v50.912h-41.012z" fill="#00ff79"/>
<path transform="scale(.26458)" d="m594.03 345.04v-24.902h48.308l-0.97988 4.5962c-4.2022 19.711-23.783 39.678-43.439 44.294l-3.8891 0.9135z"/>
</g>
<text x="43.161102" y="155.24985" fill="#000000" font-family="sans-serif" font-size="10.583px" letter-spacing="0px" stroke-width=".26458" word-spacing="0px" style="line-height:1.25" xml:space="preserve"><tspan x="43.161102" y="155.24985"><tspan x="43.161102" y="155.24985" font-size="19.756px" font-weight="bold" stroke-width=".26458">MONOPOLY </tspan></tspan><tspan x="77.945557" y="179.94427"><tspan x="77.945557" y="179.94427" font-size="19.756px" font-weight="bold" stroke-width=".26458">DEAL</tspan></tspan></text>
<g transform="rotate(179.63 105.61 72.725)">
<path transform="scale(.26458)" d="m189.33 363.95c-14.133-7.2968-27.611-24.101-30.316-37.796l-0.90788-4.5962h42.78v23.335c0 17.761-0.42223 23.318-1.7678 23.266-0.97227-0.0374-5.3769-1.9314-9.788-4.2089z" fill="#c87137"/>
<path transform="scale(.26458)" d="m208.31 370.11c-1.3164-0.53119-1.7678-6.8213-1.7678-24.637v-23.924h45.255v49.497l-20.86-0.11165c-11.473-0.0614-21.655-0.43264-22.627-0.82496z" fill="#1919a6"/>
<path transform="scale(.26458)" d="m256.04 346.3v-24.749h45.255v49.497h-45.255z" fill="#e84fe8"/>
<path transform="scale(.26458)" d="m306.95 346.3v-24.749h43.841v49.497h-43.841z" fill="#e84fe8"/>
<path transform="scale(.26458)" d="m356.44 346.3v-24.749h42.426v49.497h-42.426z" fill="#e84fe8"/>
<path transform="scale(.26458)" d="m306.95 346.3v-24.749h43.841v49.497h-43.841z" fill="#fa6b0b"/>
<path transform="scale(.26458)" d="m356.44 346.3v-24.749h42.426v49.497h-42.426z" fill="#ffd42a"/>
<path transform="scale(.26458)" d="m404.53 346.3v-24.749h42.426v49.497h-42.426z" fill="#f00"/>
<path transform="scale(.26458)" d="m452.61 346.3v-24.749h42.426v49.497h-42.426z" fill="#17a537"/>
<path transform="scale(.26458)" d="m500.69 346.3v-24.749h42.426v49.497h-42.426z" fill="#40c4eb"/>
<path transform="scale(.26458)" d="m548.78 345.6v-25.456h41.012v50.912h-41.012z" fill="#00ff79"/>
<path transform="scale(.26458)" d="m594.03 345.04v-24.902h48.308l-0.97988 4.5962c-4.2022 19.711-23.783 39.678-43.439 44.294l-3.8891 0.9135z"/>
</g>
<path d="m54.036 47.031v14.817" fill="none" stroke="#000" stroke-width="1.0565"/>
<path d="m92.073 46.955v14.817" fill="none" stroke="#000" stroke-width="1.0565"/>
<path d="m104.54 46.228v14.817" fill="none" stroke="#000" stroke-width="1.0565"/>
<path d="m117.86 46.961v14.817" fill="none" stroke="#000" stroke-width="1.0565"/>
<path d="m130.56 46.961v14.817" fill="none" stroke="#000" stroke-width="1.0565"/>
<path d="m79.23 46.961v14.817" fill="none" stroke="#000" stroke-width="1.0565"/>
<path d="m66.53 46.961v14.817" fill="none" stroke="#000" stroke-width="1.0565"/>
<path d="m143.79 46.432v14.817" fill="none" stroke="#000" stroke-width="1.0565"/>
<path d="m157.02 46.961v14.817" fill="none" stroke="#000" stroke-width="1.0565"/>
<path d="m39.869 61.272 130.59-0.37418" fill="none" stroke="#000" stroke-width="1.0936"/>
</svg>
